<svg width="171" height="60" viewBox="0 0 171 60" fill="none" xmlns="http://www.w3.org/2000/svg">
<path d="M18.341 59L18.0043 19.5H36.75C47.6576 19.5 56.5 28.3424 56.5 39.25C56.5 50.1576 47.6576 59 36.75 59H18.341Z" stroke="#CAA892"/>
<path d="M1.39911 2.16309L17.3991 19.1631V58.32L1.39911 42.1631V2.16309Z" stroke="#CAA892"/>
<path d="M17.9698 18.75L2.17013 1.53547L34.1167 2.49772C38.5084 2.63 42 6.22834 42 10.622C42 15.111 38.361 18.75 33.872 18.75H17.9698Z" stroke="#CAA892"/>
<path d="M1.25 42.25H18" stroke="#CAA892"/>
<path d="M18 19.5H34.25C40.4632 19.5 45.5 24.5368 45.5 30.75C45.5 36.9632 40.4632 42 34.25 42H18V19.5Z" stroke="#CAA892"/>
<path d="M85.4453 31.0195C85.4453 32.9336 85.1055 34.5391 84.4258 35.8359C83.7539 37.1328 82.7539 38.1094 81.4258 38.7656C80.1055 39.4219 78.4688 39.75 76.5156 39.75H72.4141V22.6172H77.0547C78.8828 22.6172 80.418 22.9375 81.6602 23.5781C82.9023 24.2188 83.8438 25.1641 84.4844 26.4141C85.125 27.6562 85.4453 29.1914 85.4453 31.0195ZM84.1797 31.0664C84.1797 29.4336 83.9141 28.0703 83.3828 26.9766C82.8516 25.8828 82.0391 25.0625 80.9453 24.5156C79.8516 23.9609 78.4648 23.6836 76.7852 23.6836H73.6211V38.6836H76.457C79.043 38.6836 80.9766 38.0508 82.2578 36.7852C83.5391 35.5117 84.1797 33.6055 84.1797 31.0664ZM98.7227 39.75H89.3594V22.6172H98.7227V23.707H90.5664V30.1992H98.2656V31.2891H90.5664V38.6602H98.7227V39.75ZM109.902 23.4609C108.809 23.4609 107.832 23.6484 106.973 24.0234C106.113 24.3906 105.387 24.9141 104.793 25.5938C104.199 26.2734 103.746 27.0859 103.434 28.0312C103.121 28.9688 102.965 30.0039 102.965 31.1367C102.965 32.6992 103.211 34.0664 103.703 35.2383C104.195 36.4023 104.934 37.3047 105.918 37.9453C106.91 38.5859 108.145 38.9062 109.621 38.9062C110.48 38.9062 111.262 38.8438 111.965 38.7188C112.668 38.5859 113.32 38.418 113.922 38.2148V39.2695C113.352 39.4805 112.707 39.6523 111.988 39.7852C111.277 39.918 110.449 39.9844 109.504 39.9844C107.793 39.9844 106.355 39.6172 105.191 38.8828C104.035 38.1484 103.164 37.1172 102.578 35.7891C101.992 34.4609 101.699 32.9102 101.699 31.1367C101.699 29.8633 101.883 28.6953 102.25 27.6328C102.617 26.5625 103.152 25.6367 103.855 24.8555C104.566 24.0664 105.43 23.457 106.445 23.0273C107.461 22.5898 108.617 22.3711 109.914 22.3711C110.734 22.3711 111.516 22.4531 112.258 22.6172C113.008 22.7734 113.711 23.0039 114.367 23.3086L113.898 24.3633C113.266 24.0508 112.617 23.8242 111.953 23.6836C111.289 23.5352 110.605 23.4609 109.902 23.4609ZM117.531 22.6172H122.23C124.348 22.6172 125.895 22.9492 126.871 23.6133C127.855 24.2773 128.348 25.3359 128.348 26.7891C128.348 27.4453 128.219 28.043 127.961 28.582C127.711 29.1211 127.336 29.5742 126.836 29.9414C126.344 30.3008 125.734 30.5469 125.008 30.6797V30.7617C125.875 30.8945 126.59 31.1367 127.152 31.4883C127.723 31.832 128.145 32.2891 128.418 32.8594C128.699 33.4219 128.84 34.0938 128.84 34.875C128.84 36 128.582 36.9219 128.066 37.6406C127.559 38.3594 126.852 38.8906 125.945 39.2344C125.039 39.5781 123.992 39.75 122.805 39.75H117.531V22.6172ZM118.738 30.2344H122.535C124.145 30.2344 125.309 29.9531 126.027 29.3906C126.746 28.8281 127.105 27.9961 127.105 26.8945C127.105 25.7539 126.719 24.9336 125.945 24.4336C125.172 23.9336 123.934 23.6836 122.23 23.6836H118.738V30.2344ZM118.738 31.2891V38.6836H122.77C124.355 38.6836 125.551 38.3633 126.355 37.7227C127.16 37.0742 127.562 36.1094 127.562 34.8281C127.562 33.9844 127.375 33.3047 127 32.7891C126.625 32.2656 126.062 31.8867 125.312 31.6523C124.57 31.4102 123.645 31.2891 122.535 31.2891H118.738ZM143.301 39.75L140.969 33.6914H133.773L131.395 39.75H130.164L136.902 22.5586H138.004L144.566 39.75H143.301ZM140.582 32.6016L138.215 26.1797C138.152 26.0156 138.074 25.8047 137.98 25.5469C137.895 25.2891 137.801 25.0156 137.699 24.7266C137.605 24.4375 137.512 24.1641 137.418 23.9062C137.34 24.1797 137.254 24.4531 137.16 24.7266C137.066 25 136.977 25.2656 136.891 25.5234C136.805 25.7734 136.723 26 136.645 26.2031L134.184 32.6016H140.582ZM156.426 35.332C156.426 36.3555 156.168 37.2148 155.652 37.9102C155.137 38.5977 154.438 39.1172 153.555 39.4688C152.672 39.8125 151.672 39.9844 150.555 39.9844C149.859 39.9844 149.227 39.9492 148.656 39.8789C148.094 39.8164 147.582 39.7305 147.121 39.6211C146.668 39.5117 146.254 39.3867 145.879 39.2461V38.0391C146.488 38.2734 147.191 38.4805 147.988 38.6602C148.793 38.832 149.668 38.918 150.613 38.918C151.504 38.918 152.293 38.7891 152.98 38.5312C153.676 38.2734 154.223 37.8828 154.621 37.3594C155.02 36.8359 155.219 36.1758 155.219 35.3789C155.219 34.6758 155.051 34.1016 154.715 33.6562C154.387 33.2031 153.891 32.8164 153.227 32.4961C152.562 32.168 151.727 31.8359 150.719 31.5C150.016 31.2578 149.375 31.0039 148.797 30.7383C148.227 30.4648 147.738 30.1523 147.332 29.8008C146.926 29.4414 146.613 29.0117 146.395 28.5117C146.184 28.0039 146.078 27.4062 146.078 26.7188C146.078 25.7734 146.316 24.9805 146.793 24.3398C147.277 23.6914 147.93 23.2031 148.75 22.875C149.578 22.5391 150.508 22.3711 151.539 22.3711C152.359 22.3711 153.137 22.4492 153.871 22.6055C154.613 22.7539 155.328 22.9805 156.016 23.2852L155.594 24.3281C154.906 24.0312 154.219 23.8125 153.531 23.6719C152.844 23.5312 152.164 23.4609 151.492 23.4609C150.688 23.4609 149.969 23.582 149.336 23.8242C148.711 24.0586 148.215 24.4141 147.848 24.8906C147.48 25.3672 147.297 25.9688 147.297 26.6953C147.297 27.4453 147.465 28.0508 147.801 28.5117C148.145 28.9727 148.629 29.3555 149.254 29.6602C149.887 29.9648 150.633 30.2617 151.492 30.5508C152.508 30.8945 153.383 31.2578 154.117 31.6406C154.852 32.0156 155.418 32.4922 155.816 33.0703C156.223 33.6484 156.426 34.4023 156.426 35.332ZM169.457 39.75H160.094V22.6172H169.457V23.707H161.301V30.1992H169V31.2891H161.301V38.6602H169.457V39.75Z" fill="#646464"/>
</svg>
